<svg version="1.1" id="Layer_1" xmlns="http://www.w3.org/2000/svg" xmlns:xlink="http://www.w3.org/1999/xlink" x="0px" y="0px"
	 width="100%" viewBox="0 0 512 512" enable-background="new 0 0 512 512" xml:space="preserve">
<path fill="#000000" opacity="1.000000" stroke="none" 
	d="
M254.671722,223.825500 
	C252.428635,220.456955 251.002060,223.522354 250.652893,224.501297 
	C247.992020,231.961502 242.601578,237.851715 239.285843,244.941254 
	C235.213806,253.647858 230.796295,262.212067 226.107559,270.602844 
	C223.810974,274.712677 219.177963,275.934082 214.853134,276.084839 
	C201.978836,276.533691 189.331833,278.900330 176.939011,281.775452 
	C166.599655,284.174164 156.395279,287.925293 147.268112,293.999115 
	C142.789886,296.979218 137.608856,298.903229 132.031357,301.658112 
	C132.099976,296.857452 134.186447,293.045593 136.432617,290.070923 
	C141.794724,282.969666 145.292633,275.000916 149.051041,267.096893 
	C152.580338,259.674713 155.598022,252.027725 160.874359,245.469986 
	C164.490524,240.975616 166.347290,235.223892 168.799728,230.055923 
	C175.989151,214.905762 185.160019,200.879501 192.612991,185.896027 
	C199.402969,172.245422 207.376694,159.176773 213.987640,145.446655 
	C217.669998,137.798798 221.758499,130.368225 226.230499,123.291275 
	C234.179489,110.711990 247.044449,107.164795 262.080627,110.771431 
	C270.997711,112.910316 276.069550,118.467743 280.668304,126.409325 
	C287.253204,137.780823 293.430420,149.325272 299.528473,160.946518 
	C306.808594,174.820450 314.408020,188.526871 321.873444,202.303482 
	C329.022491,215.496384 336.569458,228.492386 343.213257,241.934845 
	C349.231720,254.112015 356.271362,265.723297 361.968140,278.100128 
	C367.736572,290.632599 375.888062,301.995972 381.961670,314.444153 
	C383.013947,316.600830 384.828766,317.091034 386.884125,317.188080 
	C393.694489,317.509674 400.505615,317.916748 407.320221,318.007202 
	C411.344238,318.060608 413.052734,319.728973 412.963318,323.737457 
	C412.640198,338.224182 413.297241,352.719086 412.523621,367.207581 
	C412.302704,371.344360 412.797943,375.514923 412.816467,379.670624 
	C412.828125,382.293091 411.839050,384.275360 408.734039,384.158142 
	C393.092285,383.567566 377.477600,386.185852 361.815704,384.411072 
	C348.062195,382.852509 338.224945,375.853668 330.199860,364.640381 
	C322.575867,353.987701 318.397736,341.648346 311.612335,330.745453 
	C304.757324,319.730743 299.064941,308.159546 293.330841,296.631561 
	C289.325745,288.579681 284.465698,281.109589 280.119171,273.306366 
	C279.392273,272.001404 278.542206,270.695831 278.159607,269.279633 
	C275.840942,260.697540 271.546814,252.784637 266.832001,245.643738 
	C262.237396,238.684860 259.806396,230.700180 254.671722,223.825500 
z"/>
<path fill="#000000" opacity="1.000000" stroke="none" 
	d="
M192.470734,293.503784 
	C197.463837,290.922302 202.528168,291.237457 207.474945,290.980865 
	C218.640701,290.401672 229.755524,290.435303 240.523804,294.140076 
	C243.507004,295.166412 246.721313,295.306824 249.782211,295.825348 
	C258.797760,297.352692 266.316254,302.477448 274.770081,305.248169 
	C278.192139,306.369751 280.249634,309.340057 283.433716,311.001434 
	C282.118042,313.632507 280.087769,312.964874 278.452209,312.922455 
	C260.850983,312.465881 243.982346,316.116241 227.976456,323.055664 
	C220.660507,326.227539 213.735275,330.427063 206.855286,334.745544 
	C192.952118,343.472473 183.037949,355.546875 173.586090,368.306213 
	C170.755096,372.127869 168.932495,376.485901 164.740891,379.469482 
	C158.960358,383.584106 152.596512,384.835571 145.908798,384.910736 
	C130.599823,385.082825 115.287292,384.966095 99.976341,384.920898 
	C95.686432,384.908264 94.447929,383.315796 96.019081,379.278656 
	C101.045547,366.363037 104.533241,352.616577 113.386070,341.595459 
	C120.372467,332.897919 127.314476,324.022461 136.869614,317.720703 
	C143.186859,313.554352 148.969269,308.574615 155.778671,305.150269 
	C167.256454,299.378265 179.200821,295.044861 192.470734,293.503784 
z"/>
</svg>